<?xml version="1.0" encoding="UTF-8" standalone="no"?>
<svg
   version="1.0"
   width="1024pt"
   height="1024pt"
   viewBox="0 0 1024 1024"
   preserveAspectRatio="xMidYMid"
   id="svg26"
   xmlns="http://www.w3.org/2000/svg"
   xmlns:svg="http://www.w3.org/2000/svg">
  <defs
     id="defs26" />
  <g
     transform="matrix(0.1,0,0,-0.1,0,1024)"
     fill="#000000"
     stroke="none"
     id="g26"
     style="fill:#ffffff">
    <path
       d="M 4800,9306 C 4153,9230 3593,8970 3170,8549 2923,8305 2710,7973 2580,7633 l -43,-112 -51,-25 c -28,-14 -66,-41 -85,-60 -46,-48 -254,-348 -288,-415 -55,-110 -32,-238 58,-331 64,-66 108,-80 247,-80 108,0 122,-2 122,-17 0,-48 37,-160 87,-261 l 55,-112 -48,-68 c -27,-37 -54,-72 -62,-77 -7,-6 -106,-62 -219,-125 -113,-63 -225,-132 -249,-153 -23,-21 -55,-63 -71,-95 l -28,-57 3,-201 4,-200 -27,-12 c -34,-16 -55,-68 -55,-139 0,-83 16,-129 62,-179 43,-46 72,-59 159,-69 l 57,-7 6,-40 c 16,-100 106,-217 204,-267 121,-62 260,-44 381,48 43,32 108,132 117,177 3,19 9,36 13,39 4,2 122,-2 261,-10 177,-10 256,-18 261,-26 4,-7 10,-29 14,-48 12,-65 66,-160 117,-206 75,-68 141,-89 273,-89 103,-1 114,1 177,31 119,56 197,149 238,282 14,43 23,57 39,59 18,3 21,0 17,-20 -3,-13 -8,-45 -11,-73 -16,-123 -95,-266 -173,-316 l -47,-30 -600,3 -600,3 -67,32 -67,31 -68,-24 c -37,-13 -78,-24 -91,-24 -20,0 -23,-4 -18,-27 3,-16 19,-118 36,-228 17,-110 35,-210 40,-222 l 10,-23 h 974 c 670,0 977,3 981,10 4,6 -28,211 -71,456 -42,244 -74,448 -70,451 4,4 153,16 332,28 l 325,20 24,-42 c 55,-92 155,-143 283,-143 85,0 148,23 210,75 35,29 92,119 92,146 0,13 40,18 288,33 158,10 295,20 305,22 14,5 17,-1 17,-36 0,-41 -5,-47 -112,-154 -62,-62 -144,-135 -183,-164 -77,-57 -276,-163 -342,-182 -23,-7 -44,-19 -47,-26 -12,-32 -87,-468 -82,-480 5,-12 160,-14 1001,-14 982,0 995,0 1015,20 11,11 20,24 20,29 0,4 22,154 50,332 27,178 50,338 50,355 0,65 -83,98 -133,52 -13,-13 -32,-50 -42,-83 -14,-48 -29,-71 -79,-120 -99,-99 -68,-95 -715,-95 h -556 l 65,41 c 85,54 172,121 239,184 l 53,50 h 137 c 130,0 139,1 196,29 110,55 191,156 230,289 16,56 17,57 53,57 20,0 147,7 282,16 l 244,16 211,106 210,107 3,138 c 2,132 2,137 -18,137 -20,0 -20,3 -20,823 0,774 -2,824 -19,862 -46,102 -104,138 -251,155 -52,7 -98,15 -101,18 -3,4 -25,66 -49,137 -134,409 -328,725 -624,1020 -405,402 -952,668 -1546,750 -159,22 -551,28 -700,11 z m 480,-217 c 416,-42 775,-209 1074,-498 245,-238 416,-517 529,-861 30,-91 58,-181 63,-200 9,-33 13,-35 54,-38 25,-2 152,-21 282,-42 130,-22 240,-40 244,-40 4,0 5,-2 2,-5 -2,-3 -58,2 -124,10 -65,8 -202,24 -304,35 -271,30 -939,109 -981,116 -34,5 -38,9 -48,48 -29,117 -128,198 -253,210 -40,4 -174,18 -298,32 -213,23 -239,24 -480,14 -140,-5 -302,-12 -360,-14 -82,-3 -115,-8 -147,-24 -50,-26 -98,-82 -116,-137 -13,-38 -16,-40 -58,-43 -213,-12 -1126,-77 -1322,-93 -137,-11 -256,-19 -265,-17 -17,3 466,69 504,68 19,0 28,18 70,143 301,886 1079,1424 1934,1336 z m 48,-1329 c 30,-18 62,-71 62,-101 0,-9 -17,-10 -62,-5 -194,21 -315,25 -550,16 -138,-5 -254,-7 -257,-5 -10,10 36,60 70,77 27,13 83,18 269,26 402,15 430,15 468,-8 z m 324,-10 c 101,-12 197,-25 214,-31 39,-12 78,-53 99,-101 19,-46 47,-45 -249,-10 l -229,27 -4,40 c -2,22 -10,52 -18,68 -7,15 -9,27 -4,27 5,0 91,-9 191,-20 z m -282,-196 c 118,-13 350,-40 515,-59 165,-19 593,-68 950,-110 358,-41 740,-86 850,-99 219,-25 265,-39 296,-90 17,-28 27,-106 14,-106 -3,0 -198,18 -433,40 -400,38 -697,66 -1297,125 -460,45 -820,77 -874,79 -51,1 -55,-1 -64,-27 -7,-22 -6,-32 4,-42 10,-10 192,-30 614,-69 718,-67 2030,-186 2045,-186 7,0 10,-174 10,-529 v -529 l -122,-6 c -138,-7 -592,-22 -953,-32 -132,-4 -249,-11 -260,-17 -11,-5 -85,-56 -165,-112 l -145,-102 -445,-12 c -245,-6 -493,-14 -552,-18 l -108,-6 v 469 c 0,467 0,470 -22,514 -13,25 -37,53 -54,63 -45,25 -268,38 -690,41 l -341,3 -45,26 c -68,40 -118,127 -118,206 0,49 48,145 159,323 152,243 203,268 586,288 212,11 384,4 645,-26 z m -1181,-41 c -40,-44 -90,-118 -184,-273 -107,-177 -124,-213 -125,-266 v -41 l -222,-7 c -123,-3 -439,-13 -703,-21 -264,-8 -546,-17 -627,-21 l -148,-6 v 31 c 0,17 6,46 14,64 17,41 218,332 260,375 61,65 79,70 383,93 577,44 1299,96 1337,98 l 40,1 z m -262,-721 40,-79 -471,-6 c -596,-9 -1124,-9 -1165,-1 -29,6 -131,86 -131,103 0,4 102,11 228,15 429,12 1367,42 1427,45 29,1 34,-4 72,-77 z m 1014,-179 c 5,-5 12,-223 16,-490 l 6,-481 -84,-6 c -46,-3 -176,-9 -288,-14 -177,-6 -205,-9 -215,-24 -8,-14 -7,-21 5,-33 13,-14 43,-14 255,-5 131,5 259,10 283,10 h 44 l -6,-202 c -3,-112 -11,-230 -17,-264 l -12,-61 -171,-12 c -95,-6 -198,-14 -229,-18 l -58,-6 v 49 c -1,141 -71,303 -182,420 l -68,71 v 147 146 l 43,1 c 23,0 111,4 195,7 l 154,7 29,33 c 21,24 29,42 29,71 v 38 l 71,7 c 117,11 109,-9 109,255 0,216 -1,229 -20,246 -18,16 -44,19 -213,23 -155,4 -195,2 -204,-9 -6,-8 -72,-132 -147,-276 l -137,-262 6,-213 c 4,-117 8,-222 10,-233 2,-12 24,-35 49,-52 83,-59 172,-202 201,-325 8,-35 15,-95 15,-134 0,-48 4,-73 13,-76 11,-4 280,13 425,27 58,5 62,4 53,-12 -29,-53 -24,-52 -260,-68 -124,-8 -239,-15 -256,-15 h -32 l -6,113 c -10,173 -41,262 -117,331 -66,60 -100,70 -225,71 -100,0 -114,-2 -160,-27 -54,-28 -123,-96 -149,-146 l -15,-30 -147,-7 c -206,-10 -1109,18 -1361,43 -68,7 -68,7 -71,40 -4,38 -15,36 173,22 233,-17 514,-30 863,-40 301,-9 347,-8 376,5 54,26 66,59 66,180 0,140 -17,172 -99,194 l -25,7 41,45 c 59,63 304,205 470,272 23,9 52,31 66,49 13,18 79,135 146,260 103,192 120,231 111,248 -6,11 -21,22 -33,25 -12,2 -277,1 -588,-3 -547,-7 -568,-8 -589,-27 -60,-53 -340,-457 -340,-490 0,-44 6,-45 385,-46 198,-1 438,-4 534,-8 l 173,-6 -108,-60 c -134,-74 -249,-158 -300,-219 l -38,-46 h -246 c -334,1 -967,18 -1009,28 l -34,7 49,51 c 53,54 140,107 334,204 143,71 163,86 197,155 63,124 327,476 376,502 26,13 84,18 337,25 168,5 415,13 550,17 296,11 988,7 1001,-6 z m 187,-19 22,-4 v -469 -469 l -55,-4 -55,-3 v 376 c 0,207 -3,424 -7,483 l -6,107 39,-6 c 21,-3 49,-8 62,-11 z m -543,-519 v -140 l -44,-3 c -92,-7 -91,-9 -91,136 0,89 4,132 12,140 8,8 34,12 68,10 l 55,-3 z m -225,-120 c 0,-24 -2,-25 -75,-25 -73,0 -75,1 -75,25 0,24 2,25 75,25 73,0 75,-1 75,-25 z m 3640,-154 v -68 l -72,-6 c -40,-3 -221,-13 -403,-23 -232,-12 -334,-21 -344,-30 -9,-8 -11,-22 -7,-38 6,-24 10,-26 69,-26 70,0 574,26 685,36 l 72,6 v -76 -75 l -42,-5 c -24,-3 -214,-15 -424,-27 l -381,-22 -42,46 c -62,67 -110,87 -209,87 -103,0 -157,-25 -228,-103 l -49,-53 -470,-33 c -258,-18 -568,-40 -687,-50 l -218,-16 v 126 126 l 208,6 c 114,4 331,9 482,12 151,3 312,8 358,11 l 82,6 153,108 153,108 379,12 c 209,7 463,15 565,20 102,4 227,8 278,8 l 92,2 z M 5150,5256 v -324 l -22,-6 c -25,-6 -158,-8 -158,-2 0,2 9,23 20,48 34,78 50,206 50,409 v 188 l 48,4 c 26,2 50,4 55,5 4,1 7,-144 7,-322 z m -2908,214 3,-100 h -67 -68 l -1,50 c -1,28 -1,57 -1,65 0,8 0,31 1,50 l 1,35 h 64 65 z m 777,74 c 56,-6 61,-9 61,-30 v -24 h -148 c -82,0 -251,3 -375,7 l -227,6 v 24 23 h 314 c 172,0 341,-3 375,-6 z m 473,-21 c 14,-13 18,-31 18,-85 0,-38 -5,-78 -10,-89 -12,-22 -46,-23 -237,-12 l -113,6 v 99 98 h 162 c 136,0 164,-3 180,-17 z m 3508,-55 c 19,-11 31,-22 25,-24 -5,-1 -68,-4 -138,-7 -105,-3 -126,-2 -115,9 49,48 167,60 228,22 z m 993,-178 c -4,-4 -71,-40 -149,-79 l -141,-71 -233,-15 c -129,-8 -235,-13 -237,-11 -2,1 -8,39 -13,84 -6,44 -17,100 -25,123 -9,23 -14,43 -13,44 2,2 140,10 308,20 168,9 350,20 405,23 l 100,7 3,-59 c 2,-32 -1,-62 -5,-66 z m -4925,104 c 6,-2 12,-15 12,-30 v -27 l -212,6 c -117,4 -288,10 -380,13 -167,7 -168,7 -168,30 v 23 l 368,-5 c 202,-3 373,-7 380,-10 z m 3532,-76 c -6,-13 -23,-75 -40,-138 -31,-119 -50,-150 -94,-150 -11,0 -102,-7 -201,-15 -99,-8 -186,-15 -192,-15 -10,0 -13,37 -13,150 0,83 3,150 8,151 43,5 459,37 494,38 46,1 47,0 38,-21 z m -600,-168 c 0,-147 0,-150 -22,-154 -21,-4 -687,-47 -715,-46 -10,0 -13,36 -13,148 v 148 l 353,25 c 193,15 362,27 375,28 22,1 22,0 22,-149 z m 905,114 c 119,-56 145,-287 48,-427 -95,-137 -250,-52 -261,144 -8,132 37,246 109,282 43,21 62,21 104,1 z M 4036,5139 c 44,-27 82,-89 101,-166 14,-55 15,-77 5,-131 -14,-84 -56,-166 -105,-206 -33,-26 -47,-31 -92,-31 -49,0 -58,3 -95,40 -56,55 -80,124 -80,230 0,135 50,238 134,276 46,21 83,18 132,-12 z m -1631,-14 c 349,-24 746,-37 1002,-33 212,3 242,1 239,-12 -3,-8 -12,-43 -21,-77 -25,-90 -37,-99 -142,-108 -50,-3 -294,3 -563,14 -261,12 -542,24 -625,27 -82,3 -167,10 -187,15 -58,15 -78,49 -78,132 v 70 l 83,-7 c 45,-3 177,-13 292,-21 z"
       id="path1"
       style="fill:#ffffff" />
    <path
       d="m 4485,7381 c -23,-13 -49,-53 -98,-148 -70,-136 -77,-165 -52,-212 20,-39 53,-49 190,-56 66,-3 211,-10 322,-16 221,-12 232,-10 259,42 12,25 15,58 12,170 -3,134 -4,139 -29,165 -18,18 -40,27 -70,30 -24,3 -134,13 -244,24 -244,24 -253,24 -290,1 z m 165,-77 40,-6 v -125 -125 l -125,4 c -170,5 -174,9 -117,120 23,46 51,98 62,116 23,37 10,35 140,16 z m 288,-30 82,-7 v -120 -120 l -67,6 c -38,4 -89,7 -115,7 h -48 v 126 126 l 33,-5 c 17,-4 69,-9 115,-13 z"
       id="path2"
       style="fill:#ffffff" />
    <path
       d="m 5556,6929 c -15,-4 -37,-16 -48,-26 -46,-41 -48,-57 -48,-345 0,-306 3,-323 71,-360 32,-18 55,-19 519,-13 531,7 530,7 574,68 20,27 21,44 24,270 2,216 1,246 -15,277 -34,66 -35,66 -518,99 -242,17 -460,32 -485,34 -25,3 -58,1 -74,-4 z m 259,-94 c 105,-8 200,-15 213,-15 h 22 v -275 -275 h -239 c -209,0 -240,2 -245,16 -8,21 -8,549 1,557 9,10 31,9 248,-8 z m 551,-36 c 126,-8 162,-14 172,-27 18,-23 17,-465 -1,-480 -8,-7 -84,-12 -208,-12 l -194,-2 -3,266 -2,266 h 38 c 22,0 110,-5 198,-11 z"
       id="path3"
       style="fill:#ffffff" />
    <path
       d="m 7103,6831 c -59,-37 -63,-57 -63,-291 0,-311 -1,-310 223,-310 163,0 199,8 236,56 21,27 22,33 19,257 l -3,229 -31,28 c -28,25 -41,28 -130,34 -55,4 -126,9 -159,12 -49,4 -66,1 -92,-15 z m 310,-90 c 4,-4 6,-99 5,-212 l -3,-204 h -140 -140 l -3,205 c -1,112 0,211 3,218 4,11 31,12 137,6 73,-3 136,-10 141,-13 z"
       id="path4"
       style="fill:#ffffff" />
    <path
       d="m 4742,5810 c -29,-12 -37,-35 -24,-66 10,-21 18,-24 70,-24 62,0 82,11 82,46 0,44 -69,67 -128,44 z"
       id="path5"
       style="fill:#ffffff" />
    <path
       d="m 6805,5148 c -55,-43 -70,-129 -36,-205 44,-95 136,-79 171,31 18,57 -1,137 -41,171 -37,31 -58,31 -94,3 z"
       id="path6"
       style="fill:#ffffff" />
    <path
       d="m 3935,5019 c -27,-13 -63,-67 -71,-107 -18,-90 37,-192 105,-192 119,0 148,247 36,298 -30,14 -43,14 -70,1 z"
       id="path7"
       style="fill:#ffffff" />
    <path
       d="m 2220,3561 c -236,-63 -403,-231 -456,-458 -25,-105 -15,-284 20,-388 86,-255 320,-414 609,-415 321,0 569,180 642,465 20,78 20,272 0,350 -57,225 -243,402 -470,450 -96,20 -263,18 -345,-4 z m 355,-241 c 70,-34 140,-108 178,-188 30,-64 32,-73 32,-187 0,-114 -2,-123 -31,-186 -42,-88 -93,-142 -169,-180 -153,-75 -342,-49 -456,64 -117,116 -150,345 -73,500 45,89 134,169 224,198 14,5 75,7 135,6 93,-2 118,-6 160,-27 z"
       id="path8"
       style="fill:#ffffff" />
    <path
       d="m 6382,3570 c -307,-56 -514,-284 -530,-585 -10,-206 46,-364 177,-494 130,-131 280,-191 475,-191 193,0 330,55 457,180 119,117 168,244 169,428 v 82 h -315 -315 v -107 -108 l 170,2 c 93,1 171,-1 174,-5 9,-15 -33,-91 -73,-135 -24,-26 -66,-56 -104,-73 -55,-26 -73,-29 -162,-29 -87,0 -107,3 -157,27 -154,72 -238,229 -225,422 10,151 105,286 237,338 41,16 78,22 145,22 83,1 96,-2 157,-32 60,-29 120,-82 145,-126 8,-14 27,-16 155,-14 l 146,3 -31,63 c -68,135 -218,259 -372,308 -90,29 -234,39 -323,24 z"
       id="path9"
       style="fill:#ffffff" />
    <path
       d="m 4830,2938 v -618 h 429 430 l 3,116 c 2,64 1,118 -1,120 -2,2 -137,4 -300,4 h -296 v 130 130 h 247 247 l 3,115 3,115 h -247 -247 l -3,135 -3,135 h 297 297 l 3,115 3,115 -433,2 -432,3 z"
       id="path10"
       style="fill:#ffffff" />
    <path
       d="m 3250,2935 v -616 l 133,3 132,3 v 393 c 0,215 3,392 8,392 4,0 7,-4 7,-9 0,-4 75,-131 166,-282 92,-151 176,-289 187,-307 11,-18 23,-30 27,-25 5,4 93,148 197,318 l 188,310 3,-397 2,-398 h 130 130 v 615 l -1,615 h -134 -134 l -170,-283 c -93,-156 -179,-302 -191,-326 l -21,-43 -106,178 c -58,99 -146,245 -195,327 l -90,147 h -134 -134 z"
       id="path11"
       style="fill:#ffffff" />
    <path
       d="m 7432,2953 c -133,-329 -244,-606 -248,-615 -6,-17 5,-18 139,-18 h 145 l 43,125 44,125 h 257 257 l 21,-57 c 12,-32 33,-88 47,-125 l 25,-68 h 145 c 112,0 144,3 140,13 -3,6 -115,283 -248,615 l -243,602 h -141 -142 z m 472,71 84,-229 -170,-3 c -94,-1 -172,-1 -174,1 -2,2 35,106 81,232 47,126 85,231 85,234 0,17 20,-33 94,-235 z"
       id="path12"
       style="fill:#ffffff" />
    <path
       d="m 2592,1949 c -110,-22 -199,-123 -209,-239 -11,-112 40,-211 135,-268 41,-24 57,-27 132,-27 75,0 91,3 132,27 162,96 187,317 48,441 -67,62 -149,84 -238,66 z m 145,-121 c 39,-23 73,-91 73,-144 -1,-54 -31,-116 -71,-145 -45,-32 -134,-34 -176,-3 -33,24 -73,97 -73,134 0,80 47,151 115,175 46,15 87,10 132,-17 z"
       id="path13"
       style="fill:#ffffff" />
    <path
       d="m 1750,1948 c 0,-2 -1,-121 -3,-266 l -2,-262 h 53 52 v 168 167 l 67,-112 c 91,-151 95,-151 183,-2 l 65,110 3,-166 2,-165 h 50 50 v 255 c 0,140 0,258 0,263 0,4 -22,8 -49,10 -58,4 -59,3 -146,-151 -33,-59 -62,-107 -65,-107 -3,0 -32,46 -64,103 -93,161 -90,157 -147,157 -27,0 -49,-1 -49,-2 z"
       id="path14"
       style="fill:#ffffff" />
    <path
       d="m 3030,1684 v -266 l 139,4 c 123,3 143,5 168,24 89,66 96,171 17,233 l -26,21 26,31 c 20,24 26,41 26,80 0,42 -5,55 -32,85 -41,43 -80,53 -215,54 h -103 z m 237,144 c 18,-15 16,-48 -4,-70 -12,-13 -31,-18 -72,-18 h -56 l 2,52 c 1,29 2,55 2,57 2,8 115,-10 128,-21 z m 11,-204 c 14,-10 22,-26 22,-44 0,-42 -32,-60 -105,-60 h -60 l 3,60 4,60 h 57 c 35,0 65,-6 79,-16 z"
       id="path15"
       style="fill:#ffffff" />
    <path
       d="m 3520,1685 v -265 h 55 55 v 265 265 h -55 -55 z"
       id="path16"
       style="fill:#ffffff" />
    <path
       d="m 3770,1686 v -266 h 150 150 v 55 55 h -95 -95 l -2,208 -3,207 -52,3 -53,3 z"
       id="path17"
       style="fill:#ffffff" />
    <path
       d="m 4170,1685 v -265 h 165 165 v 50 50 h -112 -113 v 55 55 h 98 97 v 50 49 l -96,3 -97,3 v 53 54 l 109,1 109,2 v 50 50 l -162,3 -163,2 z"
       id="path18"
       style="fill:#ffffff" />
    <path
       d="m 4829,1946 c -2,-2 -3,-122 -1,-265 l 3,-261 h 49 50 v 96 95 l 32,-3 c 28,-3 39,-13 89,-93 l 56,-90 61,-3 62,-3 -64,103 -64,103 28,18 c 34,21 70,91 70,133 -1,41 -32,107 -64,132 -15,11 -49,25 -77,31 -48,11 -221,16 -230,7 z m 241,-121 c 26,-24 26,-63 -2,-92 -18,-19 -32,-23 -80,-23 h -58 v 71 71 l 60,-4 c 39,-3 66,-11 80,-23 z"
       id="path19"
       style="fill:#ffffff" />
    <path
       d="m 5267,1943 c -2,-4 37,-123 88,-263 l 92,-255 h 59 59 l 91,255 c 50,140 88,259 84,263 -4,5 -29,7 -56,5 l -49,-3 -64,-189 -64,-189 -66,189 -66,189 -52,3 c -28,2 -53,-1 -56,-5 z"
       id="path20"
       style="fill:#ffffff" />
    <path
       d="m 6020,1686 v -266 h 55 55 v 95 95 h 29 c 25,0 35,-10 85,-95 l 57,-95 h 61 c 60,0 60,0 46,23 -8,12 -36,57 -63,100 l -48,79 32,25 c 44,34 61,73 61,135 0,40 -6,62 -24,89 -39,57 -82,72 -223,77 l -123,4 z m 219,153 c 38,-13 55,-48 41,-83 -12,-34 -39,-46 -99,-46 h -51 v 70 70 h 39 c 21,0 53,-5 70,-11 z"
       id="path21"
       style="fill:#ffffff" />
    <path
       d="m 6517,1943 c -4,-3 -7,-123 -7,-265 v -258 h 165 165 v 50 50 h -110 -110 v 55 54 l 97,3 98,3 3,48 4,47 h -101 -101 v 58 57 l 110,-3 110,-3 v 55 56 h -158 c -87,0 -162,-3 -165,-7 z"
       id="path22"
       style="fill:#ffffff" />
    <path
       d="m 6968,1944 c -5,-4 -8,-124 -8,-266 v -258 h 55 55 v 90 90 h 64 c 36,0 77,5 93,11 64,24 113,97 113,168 0,47 -39,110 -87,138 -40,23 -58,26 -161,31 -65,2 -120,1 -124,-4 z m 197,-104 c 45,-10 65,-32 65,-70 0,-42 -34,-70 -85,-70 -24,0 -50,-3 -59,-6 -14,-5 -16,5 -16,75 v 81 h 28 c 15,0 45,-5 67,-10 z"
       id="path23"
       style="fill:#ffffff" />
    <path
       d="m 7553,1938 c -6,-7 -52,-121 -103,-253 -50,-132 -94,-246 -97,-253 -4,-10 8,-12 53,-10 l 59,3 16,45 17,45 109,3 109,3 15,-48 15,-48 57,-3 c 31,-2 57,-1 57,2 0,5 -76,204 -160,419 l -41,107 h -49 c -26,0 -52,-6 -57,-12 z m 93,-225 c 19,-49 34,-89 34,-90 0,-2 -31,-3 -70,-3 -38,0 -70,2 -70,5 0,17 64,185 68,180 3,-3 20,-44 38,-92 z"
       id="path24"
       style="fill:#ffffff" />
    <path
       d="m 7947,1943 c -4,-3 -7,-123 -7,-265 v -258 h 55 55 v 265 265 h -48 c -27,0 -52,-3 -55,-7 z"
       id="path25"
       style="fill:#ffffff" />
    <path
       d="m 8188,1944 c -5,-4 -8,-124 -8,-266 v -258 h 55 55 v 95 95 h 29 c 26,0 35,-10 86,-95 l 58,-95 h 58 c 33,0 59,2 59,4 0,3 -27,48 -61,101 l -60,97 40,34 c 85,73 75,198 -20,261 -36,24 -50,26 -162,31 -67,2 -125,1 -129,-4 z m 244,-124 c 25,-30 22,-56 -7,-85 -20,-21 -34,-25 -80,-25 h -55 v 71 72 l 62,-6 c 48,-4 67,-11 80,-27 z"
       id="path26"
       style="fill:#ffffff" />
  </g>
</svg>
